<?xml version="1.0" encoding="UTF-8"?>
<svg version="1.1" xmlns="http://www.w3.org/2000/svg" width="1440" height="1024">
<path d="M0 0 C475.2 0 950.4 0 1440 0 C1440 337.92 1440 675.84 1440 1024 C964.8 1024 489.6 1024 0 1024 C0 686.08 0 348.16 0 0 Z " fill="#FEFEFE" transform="translate(0,0)"/>
<path d="M0 0 C1.9375 0.5 1.9375 0.5 4 2 C4.58762211 4.65232338 4.74244482 7.28889284 5 10 C6.76259155 10.01401855 6.76259155 10.01401855 8.56079102 10.02832031 C12.94267949 10.06835335 17.32387568 10.13414874 21.70532227 10.20751953 C23.59748404 10.23565216 25.48976164 10.25690488 27.38208008 10.27099609 C30.1107887 10.29253286 32.83811591 10.33923669 35.56640625 10.390625 C36.82463951 10.39246796 36.82463951 10.39246796 38.10829163 10.39434814 C43.58417267 10.5292684 47.79704607 11.31396445 52 15 C56.65932807 20.29326902 57.73805986 25.12590462 57.59375 32.0234375 C57.59379028 32.85082428 57.59383057 33.67821106 57.59387207 34.53067017 C57.58854821 36.26352619 57.57110097 37.9963842 57.54199219 39.72900391 C57.49977642 42.38908791 57.50095967 45.04666548 57.5078125 47.70703125 C57.49733101 49.395851 57.48439854 51.08465772 57.46875 52.7734375 C57.46854858 53.56922211 57.46834717 54.36500671 57.46813965 55.18490601 C57.41992188 57.41162109 57.41992188 57.41162109 57 61 C56.01 61.66 55.02 62.32 54 63 C52.93761593 65.90021866 52.93761593 65.90021866 52.125 69.25 C49.41605834 78.35644226 46.20749208 81.42693382 38.1875 86.0625 C37.58752197 86.37936768 36.98754395 86.69623535 36.36938477 87.02270508 C34.4389372 88.04841221 34.4389372 88.04841221 32 90 C31.48197106 92.66796832 31.48197106 92.66796832 32 95 C32.65226563 95.1959375 33.30453125 95.391875 33.9765625 95.59375 C40.77358173 97.91957369 44.75471856 100.49929561 48 107 C49.56843858 111.2788965 50.85707223 115.58964343 52 120 C53.65 120.33 55.3 120.66 57 121 C57.11600924 132.85703904 57.20477423 144.71394237 57.25906086 156.57143402 C57.28511994 162.07777498 57.32045109 167.58372675 57.37719727 173.08984375 C57.43164786 178.40668039 57.46144828 183.72314341 57.47438622 189.04023743 C57.48360263 191.0655963 57.50160034 193.09093544 57.52865028 195.11613464 C57.56511391 197.96002896 57.56993811 200.80239275 57.56762695 203.64648438 C57.58560333 204.47799011 57.60357971 205.30949585 57.62210083 206.16619873 C57.56080376 213.16780563 55.28846168 217.57347125 50.47594929 222.58803844 C43.91201058 227.76616711 35.20860119 226.65983445 27.30273438 226.56762695 C25.60699506 226.56621518 23.91125268 226.56701098 22.21551514 226.56983948 C17.6290881 226.57127001 13.04331914 226.5419393 8.4570446 226.50696969 C3.65779867 226.47564549 -1.14146351 226.47277067 -5.9407959 226.46684265 C-15.02132848 226.45132201 -24.10155894 226.41031765 -33.18195868 226.3600952 C-43.52289624 226.30414633 -53.86384847 226.2767013 -64.20489979 226.25161803 C-85.47010618 226.1994002 -106.73502338 226.1104816 -128 226 C-128.495 232.435 -128.495 232.435 -129 239 C-130.32 239 -131.64 239 -133 239 C-133.99 234.71 -134.98 230.42 -136 226 C-137.85625 225.9175 -139.7125 225.835 -141.625 225.75 C-146.82249526 225.29139748 -150.14411721 224.75948572 -154 221 C-158.2520901 215.41311139 -158.54920983 209.50394962 -158.82421875 202.66015625 C-158.70135502 200.07899678 -158.70135502 200.07899678 -160 199 C-160.125 196.5 -160.125 196.5 -160 194 C-159.67 193.67 -159.34 193.34 -159 193 C-158.84313751 191.44051458 -158.74923361 189.87457332 -158.68359375 188.30859375 C-158.62075195 186.89223633 -158.62075195 186.89223633 -158.55664062 185.44726562 C-158.51732422 184.45404297 -158.47800781 183.46082031 -158.4375 182.4375 C-158.39431641 181.44041016 -158.35113281 180.44332031 -158.30664062 179.41601562 C-158.20019702 176.9441585 -158.09818072 174.4721969 -158 172 C-166.32901204 177.2004808 -166.32901204 177.2004808 -172 185 C-172.165 186.2375 -172.33 187.475 -172.5 188.75 C-172.665 189.8225 -172.83 190.895 -173 192 C-175.0625 193.4375 -175.0625 193.4375 -177 194 C-177.6496875 192.4840625 -177.6496875 192.4840625 -178.3125 190.9375 C-178.58835937 190.30070313 -178.86421875 189.66390625 -179.1484375 189.0078125 C-179.94732855 187.12418865 -180.69436272 185.21880866 -181.4375 183.3125 C-184.7449991 176.30060191 -190.23676519 174.14929254 -197 171 C-196.76171875 168.640625 -196.76171875 168.640625 -196 166 C-194.14453125 164.734375 -194.14453125 164.734375 -191.8125 163.75 C-185.31986121 160.48819736 -182.67956533 155.16533465 -179.375 148.9375 C-178.92125 148.298125 -178.4675 147.65875 -178 147 C-176.68 147 -175.36 147 -174 147 C-173.63648438 147.96421875 -173.27296875 148.9284375 -172.8984375 149.921875 C-172.39161728 151.19831111 -171.88374881 152.47433134 -171.375 153.75 C-171.13910156 154.38421875 -170.90320313 155.0184375 -170.66015625 155.671875 C-168.71530429 160.4592029 -166.53106052 162.60051808 -162 165 C-160.67457177 165.36349537 -159.34208227 165.70385128 -158 166 C-158.00368717 165.26339331 -158.00737434 164.52678661 -158.01117325 163.76785851 C-158.09953057 145.84030407 -158.16571265 127.91279312 -158.20724869 109.98506737 C-158.22786938 101.31532341 -158.2559805 92.64572485 -158.30175781 83.97607422 C-158.34164074 76.41914066 -158.3674364 68.8623124 -158.37635398 61.30527651 C-158.3815663 57.30424947 -158.39380661 53.30352367 -158.42292023 49.30259323 C-158.45011252 45.5351015 -158.45843743 41.7680345 -158.45243073 38.00045395 C-158.45352927 36.61937653 -158.46146086 35.2382846 -158.4768219 33.85729218 C-158.61484875 20.80587879 -158.61484875 20.80587879 -154 16 C-153.21797211 15.06295731 -152.43594421 14.12591461 -151.63021851 13.16047668 C-146.65829863 9.30072933 -139.88765051 10.35050632 -133.91650391 10.43237305 C-132.47721404 10.43378448 -131.03792059 10.43298967 -129.59863281 10.43016052 C-125.70210075 10.42872866 -121.80634165 10.45808024 -117.90998888 10.49303031 C-113.83410617 10.52433263 -109.75820482 10.52722759 -105.68222046 10.53315735 C-97.96865209 10.54868447 -90.25543897 10.5896974 -82.54202688 10.6399048 C-73.7585501 10.69583366 -64.97505617 10.72329363 -56.19144559 10.74838197 C-38.12742916 10.80061443 -20.06374316 10.8885345 -2 11 C-2.04125 9.741875 -2.0825 8.48375 -2.125 7.1875 C-2.2390374 3.70935927 -2.05925681 3.08888522 0 0 Z " fill="#B2EF42" transform="translate(753,370)"/>
<path d="M0 0 C8.91 0 17.82 0 27 0 C28 1 28 1 28.12025452 2.82862854 C28.1169236 4.02442787 28.1169236 4.02442787 28.11352539 5.24438477 C28.11344986 6.14524307 28.11337433 7.04610138 28.11329651 7.97425842 C28.10813522 8.95341721 28.10297394 9.93257599 28.09765625 10.94140625 C28.0962413 11.93881332 28.09482635 12.9362204 28.09336853 13.96385193 C28.08775114 17.16343124 28.07519571 20.36294169 28.0625 23.5625 C28.05748724 25.72591045 28.05292395 27.88932199 28.04882812 30.05273438 C28.03777607 35.36851325 28.02102104 40.68425171 28 46 C29.98 46 31.96 46 34 46 C33.979375 45.195625 33.95875 44.39125 33.9375 43.5625 C34 41 34 41 35 40 C36.66617115 39.95936168 38.33388095 39.957279 40 40 C39.99476318 38.82381104 39.98952637 37.64762207 39.98413086 36.43579102 C39.96608337 32.08797969 39.95456892 27.7401717 39.94506836 23.39233398 C39.94002756 21.5075627 39.93319502 19.62279535 39.92456055 17.73803711 C39.91248383 15.03498364 39.90676932 12.33198169 39.90234375 9.62890625 C39.89718246 8.78099014 39.89202118 7.93307404 39.88670349 7.0594635 C39.88650805 5.03928932 39.93793789 3.01922066 40 1 C41.80279191 -0.80279191 44.54047701 -0.13036605 46.96875 -0.1328125 C48.17917969 -0.13410156 49.38960937 -0.13539063 50.63671875 -0.13671875 C51.91160156 -0.13285156 53.18648437 -0.12898438 54.5 -0.125 C55.77488281 -0.12886719 57.04976562 -0.13273437 58.36328125 -0.13671875 C59.57371094 -0.13542969 60.78414062 -0.13414062 62.03125 -0.1328125 C63.15080078 -0.13168457 64.27035156 -0.13055664 65.42382812 -0.12939453 C68 0 68 0 69 1 C69.1006127 3.9776137 69.13614893 6.93207167 69.12939453 9.91015625 C69.13202301 11.31248001 69.13202301 11.31248001 69.13470459 12.74313354 C69.13912474 15.84960762 69.13618454 18.95602529 69.1328125 22.0625 C69.13348549 24.21101899 69.13445548 26.35953791 69.13571167 28.50805664 C69.13718886 33.01742272 69.13503339 37.52676903 69.13037109 42.03613281 C69.1246738 47.83048577 69.12795269 53.62479242 69.13394356 59.41914368 C69.13754859 63.85762891 69.13641085 68.29610307 69.13381577 72.73458862 C69.13314634 74.87173467 69.13397547 77.00888171 69.13629532 79.14602661 C69.1388209 82.12732626 69.13498259 85.1085498 69.12939453 88.08984375 C69.13141876 88.98234833 69.13344299 89.87485291 69.13552856 90.79440308 C69.11426232 96.88573768 69.11426232 96.88573768 68 98 C66.01242972 98.09983058 64.0213248 98.13080753 62.03125 98.1328125 C60.21560547 98.13474609 60.21560547 98.13474609 58.36328125 98.13671875 C57.08839844 98.13285156 55.81351563 98.12898437 54.5 98.125 C53.22511719 98.12886719 51.95023438 98.13273438 50.63671875 98.13671875 C49.42628906 98.13542969 48.21585938 98.13414062 46.96875 98.1328125 C45.84919922 98.13168457 44.72964844 98.13055664 43.57617188 98.12939453 C41 98 41 98 40 97 C39.9071274 95.58774954 39.88253228 94.17091066 39.88647461 92.75561523 C39.88655014 91.85475693 39.88662567 90.95389862 39.88670349 90.02574158 C39.89186478 89.04658279 39.89702606 88.06742401 39.90234375 87.05859375 C39.9037587 86.06118668 39.90517365 85.0637796 39.90663147 84.03614807 C39.91224886 80.83656876 39.92480429 77.63705831 39.9375 74.4375 C39.94251276 72.27408955 39.94707605 70.11067801 39.95117188 67.94726562 C39.96222393 62.63148675 39.97897896 57.31574829 40 52 C37.525 52.495 37.525 52.495 35 53 C34.67 54.65 34.34 56.3 34 58 C31.525 58.495 31.525 58.495 29 59 C28.97494385 60.145896 28.9498877 61.29179199 28.92407227 62.47241211 C28.83016894 66.70853598 28.72990725 70.94448928 28.62768555 75.18041992 C28.5842718 77.01664247 28.54260161 78.85290708 28.50268555 80.68920898 C28.44513831 83.32288311 28.38140002 85.95634421 28.31640625 88.58984375 C28.29133751 89.82890724 28.29133751 89.82890724 28.26576233 91.09300232 C28.11387171 96.88612829 28.11387171 96.88612829 27 98 C18.09 98 9.18 98 0 98 C0 65.66 0 33.32 0 0 Z " fill="#030401" transform="translate(651,443)"/>
<path d="M0 0 C1.93188477 0.68823242 1.93188477 0.68823242 4 2 C4.74194336 4.22387695 4.74194336 4.22387695 5.08984375 6.98828125 C5.23164062 7.99914795 5.3734375 9.01001465 5.51953125 10.05151367 C5.65746094 11.12763916 5.79539062 12.20376465 5.9375 13.3125 C8.27096836 29.97313434 8.27096836 29.97313434 17 44 C19.58775724 45.62046799 22.29298658 46.90868777 25.0625 48.1875 C26.49164749 48.86688882 27.92006224 49.54782166 29.34765625 50.23046875 C29.97679932 50.52332764 30.60594238 50.81618652 31.25415039 51.11791992 C33 52 33 52 36 54 C36.1875 57.625 36.1875 57.625 36 61 C34.9378125 61.50789063 33.875625 62.01578125 32.78125 62.5390625 C19.41667288 69.0080361 9.80150862 74.20272737 4.5546875 88.91015625 C3.65312748 91.55244244 2.80375426 94.20738842 1.98046875 96.875 C1 100 1 100 0 102 C-6.21672556 102.59776207 -6.21672556 102.59776207 -9.375 100.1875 C-11.0049999 96.9901925 -11.2406908 95.42960172 -11.4375 91.9375 C-12.16203617 80.46824661 -17.49972512 71.55579989 -26 64 C-30.88178042 60.50487316 -36.02698141 59.38290375 -41.8984375 58.4921875 C-44 58 -44 58 -46 56 C-46.375 53.5625 -46.375 53.5625 -46 51 C-43.21411392 48.41535174 -41.03372315 47.61636924 -37.3125 47.125 C-26.92708057 45.23674192 -18.38868114 38.70441986 -12.01953125 30.42578125 C-6.29265758 21.86599779 -3.10192709 13.0151568 -1.39453125 2.8984375 C-1 1 -1 1 0 0 Z " fill="#B288F9" transform="translate(753,370)"/>
<path d="M0 0 C2.33944736 0.28730055 4.6739143 0.61936779 7 1 C7.21914063 1.96679688 7.43828125 2.93359375 7.6640625 3.9296875 C10.03773303 13.89243541 12.60974645 23.14552781 21.25 29.5 C25.35514408 31.97844583 29.31051722 32.99826867 34.03125 33.67578125 C36 34 36 34 37 35 C37.04063832 36.66617115 37.042721 38.33388095 37 40 C36.45472656 40.15855469 35.90945313 40.31710937 35.34765625 40.48046875 C23.6729099 44.09265523 15.0671175 49.52312358 8.6875 60.125 C5.53062248 66.1777865 4.62150778 72.25985527 4 79 C2.68 79 1.36 79 0 79 C-0.99 74.71 -1.98 70.42 -3 66 C-4.85625 65.9175 -6.7125 65.835 -8.625 65.75 C-13.82249526 65.29139748 -17.14411721 64.75948572 -21 61 C-25.2520901 55.41311139 -25.54920983 49.50394962 -25.82421875 42.66015625 C-25.70135502 40.07899678 -25.70135502 40.07899678 -27 39 C-27.5625 36.75 -27.5625 36.75 -27 34 C-24.56483412 31.95990092 -21.77285133 30.53333169 -19 29 C-9.42884939 23.45380345 -5.71058985 18.21361613 -2.75 7.5625 C-2.43546875 6.34691406 -2.1209375 5.13132812 -1.796875 3.87890625 C-1 1 -1 1 0 0 Z " fill="#E35B33" transform="translate(620,530)"/>
<path d="M0 0 C1.94140625 0.13671875 1.94140625 0.13671875 4 1 C5.08984375 3.08203125 5.08984375 3.08203125 5.9375 5.8125 C6.27007813 6.80507813 6.60265625 7.79765625 6.9453125 8.8203125 C7.29335938 9.86960937 7.64140625 10.91890625 8 12 C12.3326837 24.08909649 16.97742341 31.01230011 28.64453125 36.7734375 C31 38 31 38 33 40 C33.125 42.625 33.125 42.625 33 45 C32.0821875 45.49628906 31.164375 45.99257813 30.21875 46.50390625 C17.65168102 53.3991729 10.81133372 59.19180889 4.76171875 72.35546875 C3.44286193 75.17476154 2.1259767 77.68712425 0 80 C-2.4375 80.5625 -2.4375 80.5625 -5 80 C-9.48287877 75.77590939 -9.67721284 71.87741569 -10 66.0625 C-10.38806623 59.10584212 -11.30845828 54.39655551 -16.7109375 49.42578125 C-17.26007812 49.05839844 -17.80921875 48.69101562 -18.375 48.3125 C-18.97183594 47.91289062 -19.56867187 47.51328125 -20.18359375 47.1015625 C-22.71374276 45.56714955 -25.31653019 44.24355918 -28 43 C-28.37890625 40.24609375 -28.37890625 40.24609375 -28 37 C-25.40234375 34.91015625 -25.40234375 34.91015625 -21.9375 33.0625 C-13.57710021 28.33877797 -7.25231305 23.27287396 -4 14 C-3.11091608 10.56725895 -2.32708933 7.13349052 -1.61328125 3.66015625 C-1 1 -1 1 0 0 Z " fill="#B388FD" transform="translate(825,336)"/>
<path d="M0 0 C1.90625 0.64453125 1.90625 0.64453125 4 2 C4.90625 4.57421875 4.90625 4.57421875 5.5 7.6875 C7.21810397 15.32757935 9.3547012 20.44515923 16.0546875 24.8828125 C18.74708255 26.42904741 21.53586619 27.71097097 24.3984375 28.91015625 C26 30 26 30 26.8515625 31.93359375 C27 34 27 34 25 37 C22.79296875 38.2109375 22.79296875 38.2109375 20.1875 39.375 C12.77877117 42.97838461 9.37423856 47.67744335 5.33203125 54.6953125 C4.28713721 56.50319369 3.15827962 58.26258057 2 60 C-0.625 60.1875 -0.625 60.1875 -3 60 C-4.99999115 56.38096839 -6.35755613 52.9071838 -7.4375 48.9375 C-8.66867318 44.79006309 -9.65442143 41.91665824 -13 39 C-15.58137127 37.78766269 -18.17002207 36.75624395 -20.85546875 35.796875 C-23 35 -23 35 -24 34 C-24.31640625 31.625 -24.31640625 31.625 -24 29 C-22.27734375 27.375 -22.27734375 27.375 -19.9375 26 C-19.11765625 25.49210937 -18.2978125 24.98421875 -17.453125 24.4609375 C-16.64359375 23.97882813 -15.8340625 23.49671875 -15 23 C-6.72487174 18.02850821 -4.38308781 11.80636979 -1.61328125 2.78515625 C-1 1 -1 1 0 0 Z " fill="#B288FA" transform="translate(808,431)"/>
<path d="M0 0 C4.75 0.75 4.75 0.75 7 3 C7.67006925 6.31721096 8.20681311 9.62117623 8.6796875 12.97070312 C9.4447686 17.66986603 10.49901351 20.54884962 14 24 C16.31060787 25.61492686 16.31060787 25.61492686 18.75 26.8125 C19.54921875 27.23144531 20.3484375 27.65039062 21.171875 28.08203125 C21.77515625 28.38496094 22.3784375 28.68789063 23 29 C22.82421875 31.26953125 22.82421875 31.26953125 22 34 C19.70703125 35.88671875 19.70703125 35.88671875 16.8125 37.6875 C9.30408586 42.88488277 5.48130723 48.68441825 3.625 57.625 C3.39662522 59.08032946 3.18042303 60.53795129 3 62 C1.68 62 0.36 62 -1 62 C-1.4846875 60.78183594 -1.969375 59.56367187 -2.46875 58.30859375 C-7.24003861 46.71448261 -11.17327531 39.35018498 -23 34 C-23.66 33.34 -24.32 32.68 -25 32 C-24.94921875 30.08203125 -24.94921875 30.08203125 -24 28 C-21.70703125 26.32421875 -21.70703125 26.32421875 -18.8125 24.6875 C-8.72484353 18.49172647 -4.8865898 10.42376109 0 0 Z " fill="#E55C39" transform="translate(565,576)"/>
<path d="M0 0 C1.21172082 2.38206581 2.36002719 4.77990059 3.48046875 7.20703125 C6.80482566 14.22849906 9.99114042 19.92816555 16 25 C17.00805948 25.99187504 18.01048603 26.98962279 19 28 C18.28714844 28.4846875 17.57429687 28.969375 16.83984375 29.46875 C9.15996631 34.84363057 3.55687221 40.52468382 -2 48 C-2.56847656 47.07058594 -3.13695312 46.14117187 -3.72265625 45.18359375 C-7.93455551 38.40167548 -11.9968622 32.34585994 -18 27 C-19.33926708 25.67262694 -20.67387761 24.34050549 -22 23 C-21.3709375 22.52691406 -20.741875 22.05382812 -20.09375 21.56640625 C-12.08540971 15.37923973 -5.31972831 8.6445585 0 0 Z " fill="#B2EE45" transform="translate(752,400)"/>
<path d="M0 0 C1.32 0 2.64 0 4 0 C4.36351562 0.96421875 4.72703125 1.9284375 5.1015625 2.921875 C5.60838272 4.19831111 6.11625119 5.47433134 6.625 6.75 C6.86089844 7.38421875 7.09679687 8.0184375 7.33984375 8.671875 C9.72962928 14.554424 13.21737664 16.79016376 18.875 19.25 C19.57625 19.4975 20.2775 19.745 21 20 C20.71193678 23.30425462 20.43960574 24.62925782 17.85546875 26.80859375 C16.97503906 27.34613281 16.09460938 27.88367188 15.1875 28.4375 C11.01802491 31.19530995 8.21129587 33.38512166 6 38 C5.7525 39.85625 5.7525 39.85625 5.5 41.75 C5.2525 43.35875 5.2525 43.35875 5 45 C2.9375 46.4375 2.9375 46.4375 1 47 C0.566875 45.989375 0.13375 44.97875 -0.3125 43.9375 C-0.72628906 42.98230469 -0.72628906 42.98230469 -1.1484375 42.0078125 C-1.94732855 40.12418865 -2.69436272 38.21880866 -3.4375 36.3125 C-6.7449991 29.30060191 -12.23676519 27.14929254 -19 24 C-18.76171875 21.640625 -18.76171875 21.640625 -18 19 C-16.14453125 17.734375 -16.14453125 17.734375 -13.8125 16.75 C-7.31986121 13.48819736 -4.67956533 8.16533465 -1.375 1.9375 C-0.92125 1.298125 -0.4675 0.65875 0 0 Z " fill="#E55C3A" transform="translate(575,517)"/>
<path d="M0 0 C6.6 0 13.2 0 20 0 C20.33 0.99 20.66 1.98 21 3 C21.99 3.33 22.98 3.66 24 4 C24.13530844 7.06398451 24.2342407 10.12197126 24.3125 13.1875 C24.35439453 14.05181641 24.39628906 14.91613281 24.43945312 15.80664062 C24.5215796 20.09364236 24.38191185 22.39017302 22.0625 26.09375 C17.83316 28.72629837 14.5580647 28.56237112 9.6875 28.3125 C8.85154297 28.28994141 8.01558594 28.26738281 7.15429688 28.24414062 C5.10208851 28.1855061 3.05080798 28.09583215 1 28 C0.67 26.68 0.34 25.36 0 24 C-1.32 23.67 -2.64 23.34 -4 23 C-4.08069658 20.04112541 -4.14034665 17.0844341 -4.1875 14.125 C-4.21263672 13.28324219 -4.23777344 12.44148437 -4.26367188 11.57421875 C-4.27333984 10.76855469 -4.28300781 9.96289062 -4.29296875 9.1328125 C-4.3086792 8.38918457 -4.32438965 7.64555664 -4.34057617 6.87939453 C-4.22818604 6.25919434 -4.1157959 5.63899414 -4 5 C-3.01 4.34 -2.02 3.68 -1 3 C-0.67 2.01 -0.34 1.02 0 0 Z " fill="#010200" transform="translate(738,513)"/>
<path d="M0 0 C2.20483512 2.09491666 3.94907153 4.2594148 5.6875 6.75 C8.5211929 10.61866889 11.7360185 13.55522089 15.4609375 16.5546875 C15.96882812 17.03164063 16.47671875 17.50859375 17 18 C17 18.66 17 19.32 17 20 C15.68092307 21.02594872 14.31756452 21.99518549 12.9375 22.9375 C7.44178771 27.04189272 4.32673279 32.08461983 1 38 C-1.75123649 36.62438176 -1.76115225 35.2461281 -2.75 32.375 C-5.24474084 25.87750332 -8.52793946 20.90126852 -15 18 C-15 17.34 -15 16.68 -15 16 C-13.42578125 14.703125 -13.42578125 14.703125 -11.3125 13.25 C-6.35385469 9.65169102 -2.4334825 5.75186774 0 0 Z " fill="#B3EB41" transform="translate(622,549)"/>
<path d="M0 0 C1.71229983 2.56844975 2.869925 4.89210567 4.125 7.6875 C6.80938157 13.17718124 10.46623235 16.97248432 15 21 C12.41267354 23.6634243 9.91885 26.06424375 7 28.375 C3.6140585 31.33769881 1.48672233 34.2699165 -1 38 C-4.07072085 34.03989354 -6.6471256 29.81593954 -9.28125 25.55859375 C-10.72467309 23.40986165 -12.09216207 21.72752398 -14 20 C-12.53191464 16.6476195 -10.62540476 14.34359034 -8.125 11.6875 C-4.75296619 7.98439378 -2.2726503 4.45060684 0 0 Z " fill="#FDFCFE" transform="translate(827,356)"/>
<path d="M0 0 C7.54115631 2.19552652 13.25047482 4.55421583 18 11 C20.47939276 15.62819983 21.46864093 19.79268107 22 25 C11.43589744 25.61538462 11.43589744 25.61538462 6.5 23.5 C1.10706654 18.10706654 -0.23337197 13.6405811 -0.25 6 C-0.18634064 3.99927715 -0.10968629 1.99872794 0 0 Z " fill="#B2EE42" transform="translate(595,570)"/>
<path d="M0 0 C0.66 0 1.32 0 2 0 C3.3671875 1.7578125 3.3671875 1.7578125 4.875 4.125 C5.4009375 4.94097656 5.926875 5.75695312 6.46875 6.59765625 C6.9740625 7.39042969 7.479375 8.18320312 8 9 C8.78833569 10.18971392 9.57940341 11.37762936 10.375 12.5625 C10.91125 13.366875 11.4475 14.17125 12 15 C11.44570313 15.60328125 10.89140625 16.2065625 10.3203125 16.828125 C9.59585938 17.62734375 8.87140625 18.4265625 8.125 19.25 C7.40570312 20.03890625 6.68640625 20.8278125 5.9453125 21.640625 C4.23064517 23.72026168 3.07019127 25.54419267 2 28 C1.34 28 0.68 28 0 28 C-1.33203125 25.953125 -1.33203125 25.953125 -2.8125 23.25 C-5.09170778 19.2963865 -7.09913404 16.52408974 -11 14 C-9.649239 9.94771699 -7.16180298 8.45431203 -3.91015625 5.81640625 C-1.97558446 3.97678277 -1.02528508 2.44243304 0 0 Z " fill="#FEFBFA" transform="translate(564,594)"/>
<path d="M0 0 C4.2742558 1.5830577 6.26531794 4.50568404 9 8 C6.41409657 11.50944037 5.0084034 12.9957983 1 15 C-1.64 12.36 -4.28 9.72 -7 7 C-4.66666667 4.66666667 -2.33333333 2.33333333 0 0 Z " fill="#FEF9F8" transform="translate(575,532)"/>
<path d="M0 0 C0 6.6 0 13.2 0 20 C-0.66 20 -1.32 20 -2 20 C-3.60634015 18.26608049 -5.1375287 16.461909 -6.625 14.625 C-7.44226563 13.62726563 -8.25953125 12.62953125 -9.1015625 11.6015625 C-11 9 -11 9 -11 7 C-9.1015625 5.2734375 -9.1015625 5.2734375 -6.625 3.375 C-5.40683594 2.42753906 -5.40683594 2.42753906 -4.1640625 1.4609375 C-2 0 -2 0 0 0 Z " fill="#B6ED52" transform="translate(810,453)"/>
<path d="M0 0 C3.76722356 3.01377885 6.28676104 5.18136738 9 9 C9 11 9 11 7.28515625 12.7265625 C6.55167969 13.35304688 5.81820312 13.97953125 5.0625 14.625 C4.33160156 15.25664062 3.60070312 15.88828125 2.84765625 16.5390625 C1 18 1 18 0 18 C0 12.06 0 6.12 0 0 Z " fill="#FCFBFE" transform="translate(810,454)"/>
</svg>
