<svg width="24" height="24" viewBox="0 0 24 24" fill="none" xmlns="http://www.w3.org/2000/svg">
<g clip-path="url(#clip0_132_532)">
<path d="M8.49902 10.2857H15.499" stroke="black" stroke-width="1.7" stroke-linecap="round" stroke-linejoin="round"/>
<path d="M8.49902 13.0354H15.499" stroke="black" stroke-width="1.7" stroke-linecap="round" stroke-linejoin="round"/>
<path d="M11.499 10.2857C12.1657 10.4524 13.499 11.0357 13.499 12.7857C13.499 15.7857 9.49902 15.7857 9.49902 15.7857C9.49902 15.7857 11.499 17.5358 14.499 18.2858" stroke="black" stroke-width="1.7" stroke-linecap="round" stroke-linejoin="round"/>
<path d="M11.9996 23.1428C17.9996 23.1428 22.2853 21.0204 22.2853 16.2962C22.2853 11.1613 19.7139 7.73795 14.571 5.17048L16.5939 2.56876C16.6966 2.39807 16.7524 2.20328 16.7554 2.00413C16.7585 1.80498 16.7088 1.60857 16.6113 1.43479C16.5139 1.26102 16.3721 1.11606 16.2005 1.01461C16.0288 0.913162 15.8333 0.858828 15.6339 0.857117H8.3653C8.16582 0.858828 7.97036 0.913162 7.79871 1.01461C7.62704 1.11606 7.4853 1.26102 7.38784 1.43479C7.29037 1.60857 7.24066 1.80498 7.24372 2.00413C7.24679 2.20328 7.30252 2.39807 7.4053 2.56876L9.42815 5.18759C4.2853 7.77218 1.71387 11.1955 1.71387 16.3304C1.71387 21.0204 5.99958 23.1428 11.9996 23.1428Z" stroke="black" stroke-width="1.7" stroke-linecap="round" stroke-linejoin="round"/>
</g>
<defs>
<clipPath id="clip0_132_532">
<rect width="24" height="24" fill="white"/>
</clipPath>
</defs>
</svg>
