<svg width="22" height="22" viewBox="0 0 22 22" fill="none" xmlns="http://www.w3.org/2000/svg">
<g clip-path="url(#clip0_132_546)">
<path d="M19.2739 5.40662H2.72693C1.89614 5.40662 1.22266 6.09481 1.22266 6.94373V19.2407C1.22266 20.0896 1.89614 20.7778 2.72693 20.7778H19.2739C20.1047 20.7778 20.7782 20.0896 20.7782 19.2407V6.94373C20.7782 6.09481 20.1047 5.40662 19.2739 5.40662Z" stroke="black" stroke-width="2" stroke-linecap="round" stroke-linejoin="round"/>
<path d="M7.74096 1.22223H14.2595C14.6917 1.22223 15.1062 1.351 15.4118 1.58021C15.7174 1.80942 15.8891 2.12029 15.8891 2.44445V4.8889H6.11133V2.44445C6.11133 2.12029 6.28303 1.80942 6.58863 1.58021C6.89425 1.351 7.30875 1.22223 7.74096 1.22223Z" stroke="black" stroke-width="2" stroke-linecap="round" stroke-linejoin="round"/>
<path d="M5.73633 10.7865H16.2662" stroke="black" stroke-width="2" stroke-linecap="round" stroke-linejoin="round"/>
<path d="M5.73633 15.3979H16.2662" stroke="black" stroke-width="2" stroke-linecap="round" stroke-linejoin="round"/>
</g>
<defs>
<clipPath id="clip0_132_546">
<rect width="22" height="22" fill="white"/>
</clipPath>
</defs>
</svg>
