<svg width="26" height="26" viewBox="0 0 26 26" fill="none" xmlns="http://www.w3.org/2000/svg">
<path d="M13.0003 23.8334C11.5198 23.8334 10.1205 23.549 8.80241 22.9802C7.48435 22.4115 6.33331 21.6351 5.34928 20.6511C4.36526 19.667 3.58887 18.516 3.02012 17.1979C2.45137 15.8799 2.16699 14.4806 2.16699 13C2.16699 11.5014 2.45137 10.0976 3.02012 8.78856C3.58887 7.47953 4.36526 6.33301 5.34928 5.34898C6.33331 4.36495 7.48435 3.58856 8.80241 3.01981C10.1205 2.45106 11.5198 2.16669 13.0003 2.16669C14.4989 2.16669 15.9028 2.45106 17.2118 3.01981C18.5208 3.58856 19.6673 4.36495 20.6514 5.34898C21.6354 6.33301 22.4118 7.47953 22.9805 8.78856C23.5493 10.0976 23.8337 11.5014 23.8337 13C23.8337 14.4806 23.5493 15.8799 22.9805 17.1979C22.4118 18.516 21.6354 19.667 20.6514 20.6511C19.6673 21.6351 18.5208 22.4115 17.2118 22.9802C15.9028 23.549 14.4989 23.8334 13.0003 23.8334ZM13.0003 21.6125C13.4698 20.9625 13.876 20.2854 14.2191 19.5813C14.5621 18.8771 14.842 18.1278 15.0587 17.3334H10.942C11.1587 18.1278 11.4385 18.8771 11.7816 19.5813C12.1246 20.2854 12.5309 20.9625 13.0003 21.6125ZM10.1837 21.1792C9.85866 20.5834 9.57428 19.965 9.33053 19.324C9.08678 18.683 8.88366 18.0195 8.72116 17.3334H5.52533C6.04894 18.2361 6.70345 19.0215 7.48887 19.6896C8.27428 20.3577 9.17255 20.8542 10.1837 21.1792ZM15.817 21.1792C16.8281 20.8542 17.7264 20.3577 18.5118 19.6896C19.2972 19.0215 19.9517 18.2361 20.4753 17.3334H17.2795C17.117 18.0195 16.9139 18.683 16.6701 19.324C16.4264 19.965 16.142 20.5834 15.817 21.1792ZM4.60449 15.1667H8.28783C8.23366 14.8056 8.19303 14.449 8.16595 14.0969C8.13887 13.7448 8.12533 13.3792 8.12533 13C8.12533 12.6209 8.13887 12.2552 8.16595 11.9031C8.19303 11.5511 8.23366 11.1945 8.28783 10.8334H4.60449C4.51421 11.1945 4.44651 11.5511 4.40137 11.9031C4.35623 12.2552 4.33366 12.6209 4.33366 13C4.33366 13.3792 4.35623 13.7448 4.40137 14.0969C4.44651 14.449 4.51421 14.8056 4.60449 15.1667ZM10.4545 15.1667H15.5462C15.6003 14.8056 15.641 14.449 15.668 14.0969C15.6951 13.7448 15.7087 13.3792 15.7087 13C15.7087 12.6209 15.6951 12.2552 15.668 11.9031C15.641 11.5511 15.6003 11.1945 15.5462 10.8334H10.4545C10.4003 11.1945 10.3597 11.5511 10.3326 11.9031C10.3055 12.2552 10.292 12.6209 10.292 13C10.292 13.3792 10.3055 13.7448 10.3326 14.0969C10.3597 14.449 10.4003 14.8056 10.4545 15.1667ZM17.7128 15.1667H21.3962C21.4864 14.8056 21.5541 14.449 21.5993 14.0969C21.6444 13.7448 21.667 13.3792 21.667 13C21.667 12.6209 21.6444 12.2552 21.5993 11.9031C21.5541 11.5511 21.4864 11.1945 21.3962 10.8334H17.7128C17.767 11.1945 17.8076 11.5511 17.8347 11.9031C17.8618 12.2552 17.8753 12.6209 17.8753 13C17.8753 13.3792 17.8618 13.7448 17.8347 14.0969C17.8076 14.449 17.767 14.8056 17.7128 15.1667ZM17.2795 8.66669H20.4753C19.9517 7.76391 19.2972 6.97849 18.5118 6.31044C17.7264 5.64238 16.8281 5.14585 15.817 4.82085C16.142 5.41669 16.4264 6.03509 16.6701 6.67606C16.9139 7.31703 17.117 7.98058 17.2795 8.66669ZM10.942 8.66669H15.0587C14.842 7.87224 14.5621 7.12294 14.2191 6.41877C13.876 5.7146 13.4698 5.03752 13.0003 4.38752C12.5309 5.03752 12.1246 5.7146 11.7816 6.41877C11.4385 7.12294 11.1587 7.87224 10.942 8.66669ZM5.52533 8.66669H8.72116C8.88366 7.98058 9.08678 7.31703 9.33053 6.67606C9.57428 6.03509 9.85866 5.41669 10.1837 4.82085C9.17255 5.14585 8.27428 5.64238 7.48887 6.31044C6.70345 6.97849 6.04894 7.76391 5.52533 8.66669Z" fill="#1D1B20"/>
</svg>
