<svg width="24" height="24" viewBox="0 0 24 24" fill="none" xmlns="http://www.w3.org/2000/svg">
<path d="M3.42843 6.85715H17.9999V15.4286C17.9999 16.3379 17.6387 17.2099 16.9956 17.8529C16.3527 18.4959 15.4806 18.8571 14.5713 18.8571H5.99986C5.09055 18.8571 4.21848 18.4959 3.5755 17.8529C2.93251 17.2099 2.57129 16.3379 2.57129 15.4286V7.71429C2.57129 7.48696 2.6616 7.26894 2.82235 7.1082C2.98308 6.94746 3.2011 6.85715 3.42843 6.85715Z" stroke="black" stroke-width="2" stroke-linecap="round" stroke-linejoin="round"/>
<path d="M18.5449 7.63635H19.9995C20.771 7.63635 21.5109 8.03862 22.0565 8.75468C22.6021 9.47072 22.9086 10.4419 22.9086 11.4545C22.9086 12.4672 22.6021 13.4383 22.0565 14.1544C21.5109 14.8705 20.771 15.2727 19.9995 15.2727H18.5449" stroke="black" stroke-width="2" stroke-linecap="round" stroke-linejoin="round"/>
<path d="M5.14258 1.09091V3.27273" stroke="black" stroke-width="2" stroke-linecap="round" stroke-linejoin="round"/>
<path d="M13.7139 1.09091V3.27273" stroke="black" stroke-width="2" stroke-linecap="round" stroke-linejoin="round"/>
<path d="M9.42871 1.09091V3.27273" stroke="black" stroke-width="2" stroke-linecap="round" stroke-linejoin="round"/>
</svg>
